# xmcd
#
# Track frame offsets: 
#        150
#        12728
#        33705
#        52315
#        53714
#        57046
#        59520
#        72289
#        75367
#        77944
#        89712
#        103846
#        115544
#        117329
#        132932
#        135314
#        136903
#        155194
#        157382
#        158786
#        165254
#        166005
#        188869
#        190333
#        190888
#        194979
#        196047
#        197522
#        224184
#        253104
#        256474
#        271307
#        272698
#        291929
#        297798
#        300595
#        319574
#        320799
#        338015
#
# Disc length: 4764 seconds
#
# Revision: 0
# Processed by: cddbd v1.5.2PL0 Copyright (c) Steve Scherf et al.
# Submitted via: ExactAudioCopy v0.95b3
#
DISCID=5b129a27
DTITLE=The Beatles  - The Beatles Deluxe - Disc 07 - sessions  PC-137 
DTITLE=FLAC
DYEAR=1900
DGENRE=
TTITLE0=Cry Baby Cry - take 1
TTITLE1=Helter Skelter - take 2
TTITLE2=Sexy Sadie - take 6
TTITLE3=Sexy Sadie - unknown take and chat
TTITLE4=Fuck A Duckie
TTITLE5=Sexy Sadie - take unknown
TTITLE6=Brian Epstein's Blues
TTITLE7=Sexy Sadie - take unknown
TTITLE8=Sexy Sadie - take unknown
TTITLE9=Sexy Sadie - take unknown
TTITLE10=Good Night - take 34 RM6
TTITLE11=Everybody's Got Something To Hide Except Me And My Monkey - t
TTITLE11=ake 12 RM5
TTITLE12=Sexy Sadie - take 28
TTITLE13=While My Guitar Gently Weeps - take 1
TTITLE14=While My Guitar Gently Weeps - take 1 plus harmonium
TTITLE15=When I Was A Robber
TTITLE16=Hey Jude - take 2
TTITLE17=Hey Jude - rehearsal a
TTITLE18=St Louis Blues - a
TTITLE19=Hey Jude - rehearsal b
TTITLE20=Hey Jude - take unknown
TTITLE21=Hey Jude - take 7
TTITLE22=Las Vegas Tune
TTITLE23=St Louis Blues - b
TTITLE24=St Louis Blues - c
TTITLE25=Hey Jude - rehearsal c
TTITLE26=Hey Jude - take 8 fragment
TTITLE27=Hey Jude - take 9
TTITLE28=Hey Jude - RS1
TTITLE29=Hey Jude - studio chat
TTITLE30=Mother Nature's Son - take 2
TTITLE31=Mother Nature's Son - take unknown
TTITLE32=Not Guilty - take 102 RM1
TTITLE33=Jam
TTITLE34=What's The New Mary Jane - take 2
TTITLE35=Rocky Raccoon - take 8
TTITLE36=Rocky Raccoon - take 9
TTITLE37=Rocky Raccoon RM1
TTITLE38=Yer Blues RM3
EXTD=
EXTT0=
EXTT1=
EXTT2=
EXTT3=
EXTT4=
EXTT5=
EXTT6=
EXTT7=
EXTT8=
EXTT9=
EXTT10=
EXTT11=
EXTT12=
EXTT13=
EXTT14=
EXTT15=
EXTT16=
EXTT17=
EXTT18=
EXTT19=
EXTT20=
EXTT21=
EXTT22=
EXTT23=
EXTT24=
EXTT25=
EXTT26=
EXTT27=
EXTT28=
EXTT29=
EXTT30=
EXTT31=
EXTT32=
EXTT33=
EXTT34=
EXTT35=
EXTT36=
EXTT37=
EXTT38=
PLAYORDER=
